<svg id="svg" version="1.1" xmlns="http://www.w3.org/2000/svg" xmlns:xlink="http://www.w3.org/1999/xlink" width="400" height="400" viewBox="0, 0, 400,400"><g id="svgg"><path id="path0" d="M70.185 152.548 C 68.423 153.358,67.633 154.184,66.866 156.020 C 65.260 159.864,65.819 160.675,77.837 171.907 C 83.525 177.224,88.130 181.703,88.071 181.860 C 88.012 182.017,83.343 186.437,77.696 191.682 C 69.276 199.501,67.318 201.505,66.818 202.815 C 64.739 208.258,70.441 213.420,75.469 210.648 C 77.378 209.595,102.159 186.398,103.123 184.762 C 105.529 180.676,104.672 179.463,89.192 165.039 C 74.120 150.995,73.893 150.846,70.185 152.548 M105.268 152.637 C 100.172 155.159,100.971 162.909,106.481 164.408 C 108.569 164.975,163.320 164.969,165.366 164.401 C 170.786 162.896,171.399 155.258,166.307 152.685 L 164.658 151.852 135.755 151.852 C 107.065 151.852,106.840 151.858,105.268 152.637 M120.926 175.523 C 114.494 177.109,114.285 185.991,120.638 187.756 C 122.629 188.308,185.580 188.291,187.575 187.738 C 192.866 186.269,193.693 178.954,188.888 176.131 C 187.543 175.341,123.971 174.773,120.926 175.523 M106.826 198.866 C 101.039 200.251,99.950 208.012,105.173 210.648 L 106.824 211.481 134.164 211.481 C 164.295 211.481,162.930 211.586,165.093 209.122 C 168.299 205.471,166.452 199.990,161.638 198.873 C 159.921 198.475,108.489 198.468,106.826 198.866 M181.583 198.878 C 175.508 200.322,175.113 209.451,181.055 211.102 C 183.266 211.716,210.114 211.601,211.586 210.972 C 217.285 208.533,216.562 200.273,210.527 198.873 C 208.784 198.469,183.287 198.473,181.583 198.878 M222.963 233.887 C 209.602 236.880,201.743 251.024,206.276 263.919 C 206.683 265.079,206.961 266.131,206.893 266.255 C 206.184 267.542,215.365 276.300,218.889 277.698 C 240.365 286.221,260.448 260.767,246.344 242.902 C 240.152 235.058,231.913 231.882,222.963 233.887 M281.653 273.426 L 279.815 275.370 281.759 273.532 C 282.829 272.522,283.704 271.647,283.704 271.588 C 283.704 271.312,283.361 271.619,281.653 273.426 M221.329 292.259 C 200.285 294.478,183.144 307.435,179.120 324.167 L 178.875 325.185 227.586 325.185 C 262.041 325.185,276.296 325.069,276.296 324.788 C 276.296 324.051,274.393 318.709,273.931 318.148 C 273.679 317.843,273.067 316.797,272.570 315.824 C 272.073 314.852,270.833 312.957,269.815 311.615 C 268.796 310.272,267.453 308.485,266.830 307.643 C 259.327 297.499,238.482 290.451,221.329 292.259 M157.858 338.613 C 157.949 339.070,162.176 353.068,167.252 369.719 L 176.481 399.993 227.620 399.997 L 278.759 400.000 288.095 369.352 C 293.230 352.495,297.426 338.510,297.420 338.272 C 297.410 337.946,280.423 337.834,227.550 337.812 L 157.692 337.782 157.858 338.613 M69.424 368.133 C 65.040 369.909,65.009 377.853,69.379 379.968 C 70.948 380.728,157.778 381.267,157.778 380.517 C 157.778 380.394,156.915 377.478,155.860 374.036 L 153.943 367.778 112.064 367.801 C 89.031 367.814,69.843 367.963,69.424 368.133 M301.358 368.051 C 301.222 368.274,299.518 373.669,297.556 380.093 C 297.238 381.131,383.482 381.078,385.770 380.038 C 390.213 378.020,390.751 371.699,386.734 368.704 C 385.700 367.932,301.823 367.291,301.358 368.051 " stroke="none" fill="#2c8454" fill-rule="evenodd"></path><path id="path1" d="M293.102 179.847 C 292.466 180.161,289.380 183.032,286.244 186.227 C 283.109 189.423,271.004 201.737,259.346 213.593 C 247.687 225.449,238.148 235.308,238.148 235.502 C 238.148 235.697,238.887 236.288,239.789 236.817 C 241.581 237.867,245.220 241.279,246.741 243.333 L 247.701 244.630 261.347 230.741 C 268.853 223.102,280.412 211.322,287.034 204.564 L 299.074 192.276 330.478 192.249 C 360.974 192.223,361.923 192.201,363.313 191.492 C 367.615 189.297,367.612 182.027,363.308 179.802 C 361.685 178.963,294.807 179.006,293.102 179.847 M286.219 268.244 C 280.299 277.515,273.406 280.321,268.335 275.524 C 266.028 273.343,265.876 273.308,266.362 275.068 C 267.590 279.513,268.507 279.791,282.385 279.928 L 293.845 280.040 280.176 293.713 L 266.506 307.386 267.336 308.415 C 269.811 311.484,271.768 314.254,272.571 315.824 C 273.068 316.797,273.639 317.812,273.840 318.080 C 274.117 318.450,277.789 314.987,288.955 303.823 L 303.704 289.078 303.704 300.895 L 303.704 312.713 304.624 314.284 C 307.076 318.468,313.558 318.355,315.814 314.089 L 316.667 312.476 316.667 291.942 C 316.667 268.882,316.758 269.696,313.951 267.837 L 312.463 266.852 299.843 266.762 L 287.222 266.673 286.219 268.244 M170.223 304.355 L 133.594 341.667 101.704 341.852 L 69.815 342.037 68.568 342.926 C 64.840 345.585,65.223 351.835,69.244 353.962 L 70.857 354.815 104.447 354.815 C 126.933 354.815,138.406 354.686,139.152 354.426 C 139.879 354.173,153.495 340.570,178.332 315.284 L 216.398 276.531 215.329 275.648 C 211.521 272.507,210.583 271.578,209.052 269.433 C 208.112 268.115,207.232 267.038,207.097 267.040 C 206.962 267.041,190.369 283.833,170.223 304.355 M245.081 328.843 C 241.333 332.705,240.932 333.492,241.177 336.498 L 241.296 337.963 248.055 337.963 L 254.814 337.963 261.202 331.574 L 267.590 325.185 258.110 325.185 L 248.630 325.185 245.081 328.843 " stroke="none" fill="#040404" fill-rule="evenodd"></path><path id="path2" d="M268.226 240.067 C 268.332 243.473,268.345 243.519,269.259 243.519 C 270.178 243.519,270.185 243.494,270.185 240.185 L 270.185 236.852 269.152 236.733 L 268.120 236.615 268.226 240.067 M274.128 242.721 C 271.994 244.884,271.731 246.296,273.464 246.296 C 274.571 246.296,278.267 242.559,278.088 241.619 C 277.810 240.151,276.230 240.591,274.128 242.721 M260.617 241.358 C 260.013 241.962,260.508 242.939,262.326 244.735 C 264.627 247.007,266.296 247.252,266.296 245.318 C 266.296 243.943,261.427 240.548,260.617 241.358 M276.351 250.508 C 266.622 260.207,267.264 259.703,266.698 258.079 C 265.209 253.807,262.053 250.364,259.526 250.253 C 257.433 250.161,257.391 250.733,259.184 254.916 C 260.853 258.811,262.042 263.285,262.551 267.593 L 262.901 270.556 265.803 273.257 C 273.333 280.269,277.776 279.294,285.572 268.915 C 287.951 265.749,287.950 265.746,284.065 260.585 C 280.015 255.206,280.001 255.979,284.259 250.000 C 288.396 244.191,288.761 242.669,286.172 242.019 C 285.195 241.774,284.580 242.305,276.351 250.508 " stroke="none" fill="#835bfb" fill-rule="evenodd"></path><path id="path3" d="M115.185 73.929 C 112.766 74.065,111.967 74.190,104.815 75.558 C 57.107 84.678,20.797 122.837,13.885 171.117 C 12.925 177.818,13.250 199.937,14.399 206.111 C 26.290 270.031,85.960 310.385,149.630 297.566 C 169.810 293.503,189.300 283.317,204.017 269.141 L 206.739 266.520 205.716 263.187 C 201.226 248.551,212.112 233.372,227.120 233.339 C 230.071 233.332,229.727 233.780,232.527 226.296 C 244.434 194.463,241.014 157.273,223.535 128.519 C 206.759 100.920,179.315 81.577,148.704 75.774 C 145.852 75.234,142.685 74.616,141.667 74.402 C 139.848 74.020,119.906 73.663,115.185 73.929 M75.290 152.361 C 76.899 153.048,102.184 176.677,103.264 178.503 C 104.299 180.253,104.401 182.488,103.533 184.413 C 102.851 185.924,78.150 209.368,75.743 210.789 C 71.417 213.341,66.296 210.142,66.296 204.888 C 66.296 201.899,66.364 201.819,77.778 191.255 C 83.176 186.259,87.642 182.033,87.703 181.864 C 87.764 181.695,83.208 177.254,77.578 171.994 C 66.422 161.571,66.296 161.417,66.296 158.221 C 66.296 153.529,70.940 150.503,75.290 152.361 M167.323 152.902 C 171.225 155.684,170.790 161.988,166.555 164.039 C 164.706 164.934,107.972 165.290,105.672 164.421 C 100.255 162.374,100.178 154.195,105.556 152.118 C 105.861 152.000,119.611 151.934,136.111 151.970 L 166.111 152.037 167.323 152.902 M187.789 175.428 C 193.260 176.522,193.932 185.084,188.733 187.446 C 186.939 188.261,121.857 188.552,119.746 187.754 C 114.395 185.732,114.213 178.497,119.445 175.769 C 120.607 175.163,184.862 174.843,187.789 175.428 M164.236 199.772 C 168.966 203.380,167.295 210.236,161.388 211.462 C 160.003 211.750,151.351 211.844,132.940 211.771 L 106.481 211.667 104.871 210.745 C 100.969 208.511,100.330 202.193,103.786 200.027 C 106.283 198.462,105.209 198.511,134.659 198.610 L 162.836 198.704 164.236 199.772 M213.207 199.854 C 217.690 203.477,216.075 210.249,210.445 211.438 C 207.835 211.988,184.418 211.997,181.859 211.448 C 176.184 210.231,174.479 203.263,179.019 199.842 C 180.721 198.561,180.380 198.584,196.725 198.646 L 211.784 198.704 213.207 199.854 " stroke="none" fill="#fcfbbc" fill-rule="evenodd"></path><path id="path4" d="M67.889 153.796 C 66.973 154.802,66.291 156.071,66.311 156.735 C 66.319 157.003,66.578 156.640,66.886 155.929 C 67.195 155.217,67.801 154.259,68.233 153.799 C 68.665 153.339,68.935 152.963,68.833 152.963 C 68.731 152.963,68.306 153.338,67.889 153.796 M102.423 154.940 C 100.730 157.828,101.227 160.870,103.763 163.147 L 105.000 164.258 103.841 162.962 C 101.501 160.348,101.159 157.728,102.793 154.940 C 103.311 154.056,103.652 153.333,103.550 153.333 C 103.448 153.333,102.941 154.056,102.423 154.940 M80.185 156.667 C 81.395 157.889,82.468 158.889,82.569 158.889 C 82.671 158.889,81.765 157.889,80.556 156.667 C 79.346 155.444,78.273 154.444,78.171 154.444 C 78.069 154.444,78.976 155.444,80.185 156.667 M66.311 159.926 C 66.282 160.879,67.390 162.444,69.509 164.444 L 71.667 166.481 69.554 164.259 C 68.392 163.037,67.191 161.454,66.884 160.741 C 66.576 160.028,66.319 159.661,66.311 159.926 M85.741 161.852 C 86.950 163.074,88.023 164.074,88.125 164.074 C 88.227 164.074,87.321 163.074,86.111 161.852 C 84.902 160.630,83.829 159.630,83.727 159.630 C 83.625 159.630,84.531 160.630,85.741 161.852 M91.111 166.852 C 92.218 167.972,93.206 168.889,93.308 168.889 C 93.410 168.889,92.588 167.972,91.481 166.852 C 90.375 165.731,89.386 164.815,89.285 164.815 C 89.183 164.815,90.005 165.731,91.111 166.852 M74.444 169.074 C 75.757 170.398,76.914 171.481,77.016 171.481 C 77.117 171.481,76.127 170.398,74.815 169.074 C 73.503 167.750,72.345 166.667,72.244 166.667 C 72.142 166.667,73.132 167.750,74.444 169.074 M96.667 172.037 C 97.773 173.157,98.762 174.074,98.864 174.074 C 98.965 174.074,98.143 173.157,97.037 172.037 C 95.931 170.917,94.942 170.000,94.840 170.000 C 94.738 170.000,95.560 170.917,96.667 172.037 M80.000 174.259 C 81.312 175.583,82.469 176.667,82.571 176.667 C 82.673 176.667,81.683 175.583,80.370 174.259 C 79.058 172.935,77.901 171.852,77.799 171.852 C 77.697 171.852,78.688 172.935,80.000 174.259 M101.111 176.111 C 101.802 176.824,102.451 177.407,102.553 177.407 C 102.655 177.407,102.173 176.824,101.481 176.111 C 100.790 175.398,100.142 174.815,100.040 174.815 C 99.938 174.815,100.420 175.398,101.111 176.111 M117.527 177.130 C 117.114 177.588,116.644 178.213,116.482 178.519 C 116.170 179.108,116.255 179.027,117.755 177.315 C 118.246 176.755,118.564 176.296,118.462 176.296 C 118.361 176.296,117.940 176.671,117.527 177.130 M85.536 179.339 L 87.916 181.826 87.212 182.672 L 86.509 183.519 87.414 182.682 L 88.320 181.845 85.738 179.348 L 83.155 176.852 85.536 179.339 M115.780 179.845 C 114.795 182.414,117.443 187.778,119.697 187.778 C 119.924 187.778,119.559 187.403,118.885 186.944 C 116.725 185.475,116.111 184.300,116.111 181.640 C 116.111 179.028,116.105 178.998,115.780 179.845 M191.729 183.771 C 191.593 184.314,191.029 185.312,190.476 185.990 C 189.642 187.012,189.617 187.096,190.329 186.482 C 191.351 185.601,192.325 183.828,192.122 183.218 C 192.042 182.979,191.866 183.228,191.729 183.771 M83.507 186.019 L 81.296 188.333 83.611 186.123 C 85.761 184.069,86.095 183.704,85.822 183.704 C 85.764 183.704,84.723 184.745,83.507 186.019 M101.504 186.776 C 99.948 188.601,99.934 188.635,101.257 187.407 C 102.428 186.320,103.628 184.772,103.254 184.831 C 103.196 184.841,102.408 185.716,101.504 186.776 M78.137 191.019 L 75.741 193.519 78.241 191.122 C 79.616 189.804,80.741 188.679,80.741 188.622 C 80.741 188.349,80.364 188.696,78.137 191.019 M96.286 191.759 L 93.889 194.259 96.389 191.863 C 97.764 190.544,98.889 189.419,98.889 189.363 C 98.889 189.090,98.512 189.437,96.286 191.759 M72.766 196.019 L 70.556 198.333 72.870 196.123 C 75.021 194.069,75.355 193.704,75.081 193.704 C 75.024 193.704,73.982 194.745,72.766 196.019 M90.544 197.130 L 88.333 199.444 90.648 197.234 C 92.798 195.180,93.132 194.815,92.859 194.815 C 92.801 194.815,91.760 195.856,90.544 197.130 M68.452 199.907 C 67.036 201.389,66.287 202.610,66.311 203.402 C 66.319 203.670,66.577 203.306,66.885 202.593 C 67.193 201.880,68.054 200.671,68.798 199.907 C 69.542 199.144,70.067 198.519,69.965 198.519 C 69.863 198.519,69.183 199.144,68.452 199.907 M213.566 200.373 C 214.000 200.881,214.618 201.796,214.940 202.407 C 215.262 203.019,215.533 203.385,215.541 203.222 C 215.571 202.627,214.497 200.905,213.649 200.187 L 212.778 199.450 213.566 200.373 M84.804 202.500 L 82.407 205.000 84.907 202.603 C 86.282 201.285,87.407 200.160,87.407 200.103 C 87.407 199.831,87.030 200.178,84.804 202.500 M102.481 201.457 C 102.135 202.043,101.852 202.663,101.853 202.835 C 101.854 203.007,102.196 202.588,102.614 201.903 C 103.032 201.218,103.314 200.598,103.241 200.525 C 103.169 200.453,102.826 200.872,102.481 201.457 M176.833 202.766 C 176.538 203.472,176.316 204.597,176.340 205.266 C 176.377 206.302,176.426 206.228,176.673 204.767 C 176.832 203.824,177.152 202.699,177.383 202.267 C 177.615 201.835,177.706 201.481,177.587 201.481 C 177.467 201.481,177.128 202.059,176.833 202.766 M101.536 204.926 C 101.488 206.478,102.257 208.889,102.800 208.889 C 102.904 208.889,102.780 208.514,102.524 208.056 C 102.269 207.597,101.954 206.306,101.825 205.185 L 101.590 203.148 101.536 204.926 M166.768 205.185 C 166.768 206.102,166.840 206.477,166.928 206.019 C 167.016 205.560,167.016 204.810,166.928 204.352 C 166.840 203.894,166.768 204.269,166.768 205.185 M215.649 205.000 C 215.653 205.815,215.729 206.105,215.818 205.644 C 215.906 205.183,215.903 204.516,215.810 204.162 C 215.717 203.808,215.645 204.185,215.649 205.000 M79.062 207.870 L 76.852 210.185 79.167 207.975 C 81.317 205.921,81.651 205.556,81.377 205.556 C 81.320 205.556,80.278 206.597,79.062 207.870 M166.296 207.345 C 166.296 207.582,165.677 208.484,164.921 209.351 C 163.615 210.846,163.608 210.869,164.768 209.815 C 166.111 208.593,166.845 207.463,166.511 207.129 C 166.393 207.010,166.296 207.108,166.296 207.345 M67.037 208.634 C 67.037 208.698,67.579 209.240,68.241 209.838 L 69.444 210.926 68.357 209.722 C 67.343 208.600,67.037 208.348,67.037 208.634 M177.407 208.634 C 177.407 208.698,177.949 209.240,178.611 209.838 L 179.815 210.926 178.727 209.722 C 177.713 208.600,177.407 208.348,177.407 208.634 M213.495 209.722 L 212.407 210.926 213.611 209.838 C 214.733 208.824,214.985 208.519,214.699 208.519 C 214.635 208.519,214.094 209.060,213.495 209.722 M120.833 211.759 C 128.116 211.815,140.032 211.815,147.315 211.759 C 154.597 211.703,148.639 211.657,134.074 211.657 C 119.509 211.657,113.551 211.703,120.833 211.759 M189.561 211.759 C 193.292 211.819,199.292 211.819,202.894 211.759 C 206.497 211.698,203.444 211.649,196.111 211.649 C 188.778 211.649,185.830 211.698,189.561 211.759 M210.887 240.463 C 209.751 241.694,208.423 243.446,209.132 242.778 C 209.924 242.032,212.304 239.259,212.153 239.259 C 212.067 239.259,211.497 239.801,210.887 240.463 M207.631 244.907 C 206.692 246.516,205.823 248.551,206.008 248.709 C 206.065 248.757,206.715 247.568,207.453 246.065 C 208.949 243.020,209.027 242.516,207.631 244.907 M205.176 251.191 C 204.931 252.285,204.814 253.507,204.915 253.905 C 205.043 254.407,205.113 254.288,205.144 253.519 C 205.169 252.907,205.367 251.767,205.585 250.984 C 205.802 250.201,205.899 249.480,205.801 249.381 C 205.702 249.282,205.421 250.097,205.176 251.191 M204.530 256.296 C 204.530 257.009,204.607 257.301,204.700 256.944 C 204.793 256.588,204.793 256.005,204.700 255.648 C 204.607 255.292,204.530 255.583,204.530 256.296 M204.889 259.074 C 204.880 259.889,205.105 261.222,205.391 262.037 C 205.743 263.043,205.840 263.162,205.691 262.407 C 205.571 261.796,205.346 260.463,205.190 259.444 C 204.917 257.654,204.907 257.642,204.889 259.074 M206.138 264.444 C 206.274 264.954,206.540 265.620,206.729 265.926 C 206.968 266.312,206.997 266.199,206.825 265.556 C 206.689 265.046,206.423 264.380,206.234 264.074 C 205.995 263.688,205.966 263.801,206.138 264.444 " stroke="none" fill="#9dc38c" fill-rule="evenodd"></path></g></svg>